<?xml version="1.0" standalone="no"?>
<!DOCTYPE svg PUBLIC "-//W3C//DTD SVG 20010904//EN"
 "http://www.w3.org/TR/2001/REC-SVG-20010904/DTD/svg10.dtd">
<svg version="1.0" xmlns="http://www.w3.org/2000/svg"
 width="512.000000pt" height="512.000000pt" viewBox="0 0 512.000000 512.000000"
 preserveAspectRatio="xMidYMid meet">

<g transform="translate(0.000000,512.000000) scale(0.100000,-0.100000)"
fill="#000000" stroke="none">
<path d="M2515 5104 c-71 -9 -144 -28 -200 -54 -82 -37 -1687 -992 -1753
-1042 -100 -78 -180 -203 -219 -348 -17 -60 -18 -140 -18 -1115 0 -1173 -4
-1099 72 -1255 27 -57 56 -94 117 -155 78 -77 113 -99 840 -530 1126 -667
1007 -609 1229 -603 124 3 150 7 202 29 58 24 1632 953 1746 1030 116 79 212
218 249 365 19 75 20 112 20 1119 0 1004 -1 1045 -20 1119 -38 151 -136 292
-259 375 -31 21 -423 255 -871 522 -867 515 -899 531 -1040 541 -36 3 -78 3
-95 2z m222 -142 c40 -17 927 -538 1650 -970 123 -74 194 -146 243 -247 21
-44 42 -96 45 -115 l6 -35 -22 33 c-51 77 -152 93 -260 40 -95 -47 -1639
-1004 -1707 -1058 -70 -56 -125 -128 -155 -200 l-22 -55 0 -1050 0 -1050 29
-53 c17 -29 42 -61 58 -70 15 -9 28 -20 28 -24 0 -14 -123 -9 -183 7 -32 8
-77 24 -100 36 -23 12 -415 243 -871 513 -898 532 -907 539 -973 662 -72 136
-68 62 -68 1219 l0 1040 22 70 c30 95 88 189 149 243 70 62 1731 1047 1809
1072 81 27 245 23 322 -8z m501 -2754 l3 -77 25 9 c14 6 50 10 80 10 48 0 54
-2 54 -21 0 -30 -30 -142 -42 -156 -6 -8 -33 -13 -65 -13 -54 0 -117 -23 -157
-59 -29 -26 -56 -87 -56 -129 0 -60 22 -73 135 -83 98 -8 124 -17 163 -53 36
-32 52 -71 58 -139 12 -124 -43 -269 -141 -375 l-55 -60 0 -81 0 -81 -47 -30
c-75 -48 -83 -43 -83 44 l0 73 -57 -13 c-59 -15 -123 -10 -134 8 -7 11 14 117
30 154 8 19 19 22 89 25 66 3 86 9 128 34 82 51 127 143 105 215 -14 47 -42
60 -154 70 -106 10 -144 30 -174 90 -58 113 -8 305 113 439 l54 59 0 76 c0 80
0 80 60 121 56 39 65 31 68 -57z m842 -871 l0 -64 -209 -126 c-115 -70 -212
-127 -215 -127 -3 0 -6 29 -6 64 l0 63 208 126 c114 69 210 126 215 126 4 1 7
-27 7 -62z"/>
<path d="M2760 4491 c-78 -24 -155 -97 -185 -174 -23 -61 -17 -155 13 -219 30
-60 92 -125 145 -149 52 -23 144 -25 195 -4 79 33 152 130 152 202 l0 38 30
-45 c95 -142 100 -288 13 -371 -38 -37 -110 -79 -135 -79 -7 0 -19 -4 -27 -9
-11 -7 -9 -15 10 -40 29 -39 46 -39 121 1 231 123 239 375 22 665 -107 143
-248 216 -354 184z m164 -129 c22 -15 53 -47 68 -72 26 -39 29 -53 26 -102 -7
-102 -81 -164 -184 -156 -64 5 -112 38 -150 104 -106 180 69 344 240 226z"/>
<path d="M2193 4077 c-74 -26 -108 -56 -139 -122 -52 -110 -17 -250 108 -431
60 -87 168 -193 228 -224 144 -74 312 -3 357 150 14 46 14 66 4 123 -22 131
-91 248 -230 392 -59 61 -87 81 -144 105 -84 35 -101 36 -184 7z m153 -100
c120 -63 290 -297 313 -429 11 -65 11 -68 -16 -112 -24 -39 -35 -48 -80 -61
-52 -15 -53 -15 -115 16 -82 41 -160 124 -241 259 -50 83 -66 119 -76 172 -11
66 -11 67 19 115 25 39 39 50 73 60 58 15 55 16 123 -20z"/>
<path d="M1598 3648 c-87 -62 -157 -116 -157 -119 -1 -5 75 -127 195 -317 l34
-52 62 49 c126 98 200 119 278 79 86 -44 128 -164 87 -245 -35 -67 -159 -143
-233 -143 l-25 0 31 -45 c27 -40 34 -44 58 -39 96 23 237 144 265 228 36 106
13 201 -71 286 -60 61 -101 80 -174 80 -54 0 -140 -35 -199 -82 -28 -22 -52
-38 -53 -36 -4 4 -119 187 -129 205 -5 7 37 44 113 98 66 48 123 91 126 96 6
10 -33 69 -45 69 -4 0 -77 -51 -163 -112z"/>
<path d="M836 2518 c-6 -27 -26 -175 -26 -188 0 -7 352 -332 480 -444 25 -21
41 -40 35 -42 -5 -3 -147 -69 -315 -149 l-305 -144 -17 -113 c-9 -62 -16 -114
-14 -115 2 -2 171 82 375 187 205 104 377 190 384 190 7 0 152 -140 323 -311
l311 -311 12 83 c6 46 14 100 17 120 5 36 5 37 -198 225 -112 104 -232 215
-267 246 l-64 58 35 14 c119 50 604 300 609 314 8 24 32 203 27 207 -3 4 -227
-111 -655 -335 l-111 -58 -312 294 c-171 162 -313 294 -315 294 -3 0 -7 -10
-9 -22z"/>
</g>
</svg>
